HIERARCHY
ROOT Hips
{
  OFFSET 0 0 0
  CHANNELS 6 Xposition Yposition Zposition Zrotation Yrotation Xrotation
  JOINT LeftThigh
  {
    OFFSET 8.409438 0 -5.917753
    CHANNELS 3 Zrotation Yrotation Xrotation
    JOINT LeftLeg
    {
      OFFSET 0 0 -42.358652
      CHANNELS 3 Zrotation Yrotation Xrotation
      JOINT LeftFoot
      {
        OFFSET 0 0 -39.357303
        CHANNELS 3 Zrotation Yrotation Xrotation
      }
    }
  }
  JOINT RightThigh
  {
    OFFSET -8.409438 0 -5.917753
    CHANNELS 3 Zrotation Yrotation Xrotation
    JOINT RightLeg
    {
      OFFSET 0 0 -42.358652
      CHANNELS 3 Zrotation Yrotation Xrotation
      JOINT RightFoot
      {
        OFFSET 0 0 -39.357303
        CHANNELS 3 Zrotation Yrotation Xrotation
      }
    }
  }
  JOINT SpineLow
  {
    OFFSET 0 0 4.719101
    CHANNELS 3 Zrotation Yrotation Xrotation
    JOINT SpineMid
    {
      OFFSET 0 0 12.899191
      CHANNELS 3 Zrotation Yrotation Xrotation
      JOINT Chest
      {
        OFFSET 0 0 12.899191
        CHANNELS 3 Zrotation Yrotation Xrotation
        JOINT LeftShoulder
        {
          OFFSET 7.550562 1.41573 9.438202
          CHANNELS 3 Zrotation Yrotation Xrotation
          JOINT LeftArm
          {
            OFFSET 9.155056 0 4.247191
            CHANNELS 3 Zrotation Yrotation Xrotation
            JOINT LeftForearm
            {
              OFFSET 0 0 25.771955
              CHANNELS 3 Zrotation Yrotation Xrotation
              JOINT LeftHand
              {
                OFFSET 0 0 25.197169
                CHANNELS 3 Zrotation Yrotation Xrotation
              }
            }
          }
        }
        JOINT RightShoulder
        {
          OFFSET -7.550562 1.41573 9.438202
          CHANNELS 3 Zrotation Yrotation Xrotation
          JOINT RightArm
          {
            OFFSET -9.155056 0 4.247191
            CHANNELS 3 Zrotation Yrotation Xrotation
            JOINT RightForearm
            {
              OFFSET 0 0 -25.771955
              CHANNELS 3 Zrotation Yrotation Xrotation
              JOINT RightHand
              {
                OFFSET 0 0 -25.197169
                CHANNELS 3 Zrotation Yrotation Xrotation
              }
            }
          }
        }
        JOINT Neck
        {
          OFFSET 0 0 15.101124
          CHANNELS 3 Zrotation Yrotation Xrotation
          JOINT Head
          {
            OFFSET 0 0 11.325843
            CHANNELS 3 Zrotation Yrotation Xrotation
            End Site
            {
              OFFSET 0 0 14.157303
            }
          }
        }
      }
    }
  }
}
MOTION
Frames: 11
Frame Time: 0.0
0.0  93.25843  0.0  -2.545918  -50.074602  -94.321205  42.663906  -26.21816  -37.923567  0.790823  3.805705  34.939355  5.773552  2.297238  5.967702  1.145583  20.624757  -2.024798  -0.878303  4.901732  29.636364  -1.227248  2.901633  -6.490798  3.206268  -0.368468  0.017621  8.76437  -1.007469  -7.24E-4  8.76437  -1.007468  -7.24E-4  -12.704863  10.315788  6.145938  -138.960413  65.066529  -79.0832  -29.363847  8.523202  89.136373  87.771183  -9.230293  -8.654022  -5.090579  -12.284713  20.025618  76.553365  36.445393  27.070351  -8.279051  -4.621642  -118.427885  65.87434  -13.734163  -16.244487  -12.737274  5.632179  6.779003  -9.609255  4.085651  5.200551  
0.0  93.25843  0.0  -2.094269  -49.933599  -94.813548  42.168279  -26.275747  -37.591  0.797513  3.99347  34.664681  6.254717  2.383265  6.196643  1.685161  20.997787  -1.397163  -0.921376  4.575212  29.098702  -1.286274  2.97804  -6.383404  3.120783  -0.39851  0.050928  8.530221  -1.093768  0.087582  8.530221  -1.093768  0.087582  -11.773742  10.500534  6.283576  -141.062397  65.626647  -80.931995  -29.246214  8.055684  89.137976  87.884445  -9.04423  -8.90854  -4.133874  -11.915725  20.410066  76.015248  36.327527  26.866806  -9.237914  -3.751839  -118.470016  65.887688  -13.610694  -14.93239  -12.48176  5.821706  6.583541  -9.417404  4.234606  5.055166  
0.0  93.25843  0.0  -1.90454  -49.340929  -95.040322  41.128834  -26.582073  -37.32064  1.167361  4.199698  34.61231  6.485123  2.478557  6.196582  1.45175  21.299317  -0.965719  -0.994174  4.301103  28.600188  -1.366567  3.049985  -6.362917  3.133641  -0.39766  0.106049  8.564459  -1.098591  0.237869  8.564459  -1.098591  0.237869  -11.747989  10.457316  6.21793  -143.301786  66.223508  -82.731114  -29.074254  7.459059  89.04481  88.040772  -8.807653  -9.229358  -4.097279  -11.780115  20.562294  75.420711  36.194438  26.53421  -10.129244  -2.840814  -118.47923  65.936954  -13.513715  -13.450659  -12.782276  5.727205  6.277055  -9.638866  4.166901  4.826515  
0.0  93.25843  0.0  -1.945786  -48.903274  -95.202589  39.770792  -27.349152  -37.079791  2.097229  4.318778  34.855442  6.732763  2.586813  6.205404  1.274097  21.459398  -0.491347  -0.751732  4.208726  27.975777  -1.448056  2.880931  -6.18239  3.14364  -0.437252  0.159187  8.590793  -1.213528  0.377544  8.590792  -1.213528  0.377544  -11.500583  10.564767  6.219836  -145.786144  66.847318  -84.776315  -28.879123  6.764921  88.862734  88.452045  -8.510192  -9.428062  -4.223548  -11.628137  20.533474  75.087864  35.833545  26.35753  -10.921017  -1.916842  -118.373216  66.217545  -13.444001  -11.714645  -13.140595  5.583784  6.001207  -9.903702  4.061584  4.620278  
0.0  93.25843  0.0  -2.04619  -48.084567  -95.078498  38.344665  -27.992939  -36.91044  2.937231  4.601514  34.836139  6.996439  2.698793  6.283755  0.302264  21.674702  -0.407538  -0.551175  3.959369  27.492143  -1.349845  2.899343  -6.150082  3.122882  -0.47907  0.162898  8.533871  -1.327988  0.382666  8.533871  -1.327988  0.382666  -11.311607  10.769052  6.320177  -148.570622  67.40936  -87.061399  -28.582974  5.816531  88.652827  89.208032  -8.061867  -9.340696  -4.011063  -11.417312  20.691557  74.085713  35.75488  25.86745  -11.916345  -0.524693  -118.171512  66.250498  -13.247809  -9.537354  -13.448766  5.514749  5.819464  -10.132472  4.01082  4.485501  
0.0  93.25843  0.0  -2.089318  -47.902509  -95.154631  37.59392  -28.657551  -36.567672  3.722716  4.850634  34.833845  7.274183  2.78277  6.366049  -0.098626  21.855466  -0.126117  -0.276606  3.623597  26.915105  -1.042266  3.008956  -6.092228  3.197356  -0.498202  0.22179  8.73618  -1.388327  0.539305  8.73618  -1.388327  0.539304  -11.150057  10.71718  6.153259  -151.8098  67.829535  -89.93673  -28.046443  4.267783  88.514126  90.016112  -7.332286  -9.063264  -3.957701  -11.430041  20.412943  73.532584  35.603351  25.659565  -13.15514  0.718922  -117.632242  66.768137  -12.562983  -7.227522  -13.799954  5.33178  5.571472  -10.392193  3.875828  4.298903  
0.0  93.25843  0.0  -2.270336  -47.107937  -94.867746  36.551677  -28.986604  -36.507368  4.316341  5.059736  34.850209  7.524065  2.828683  6.385666  -0.921135  22.114517  0.019571  -0.081559  3.181391  26.296722  -1.027356  3.030224  -6.07837  3.209788  -0.522541  0.209239  8.770337  -1.453152  0.501577  8.770338  -1.453152  0.501577  -11.102195  10.785061  6.101299  -155.264818  68.1712  -93.132774  -27.131382  1.984291  88.502911  90.537985  -6.195504  -8.806971  -3.756711  -11.444914  20.306407  72.669026  35.686825  25.354292  -14.501486  2.122359  -117.106025  67.700784  -11.545908  -4.266632  -14.206578  5.260357  5.461331  -10.695525  3.821195  4.218427  
0.0  93.25843  0.0  -2.061181  -46.983958  -94.903165  36.385079  -28.923588  -36.357842  4.703001  5.178662  34.944377  7.699246  2.853888  6.396649  -0.693499  22.55824  0.447379  -0.535783  2.660153  25.602731  -0.955585  3.090659  -6.05969  3.167155  -0.554757  0.162376  8.654763  -1.534619  0.370454  8.654763  -1.534619  0.370455  -10.121628  11.175671  6.422278  -158.489157  68.674963  -96.444566  -26.176429  -0.744784  88.601446  90.651026  -4.681706  -8.715379  -2.77554  -11.374693  20.368424  72.207341  35.819047  25.394251  -16.226223  3.727412  -116.504081  68.729062  -10.309119  -1.138184  -14.067585  5.437818  5.514161  -10.592922  3.954381  4.260711  
0.0  93.25843  0.0  -2.267527  -46.159927  -94.631464  35.886686  -28.768791  -36.495466  4.72824  5.27897  35.079977  7.747488  2.876634  6.332078  -0.693822  22.702658  1.150039  -0.954586  2.341719  24.739211  -1.122963  3.064988  -6.027871  3.195934  -0.603507  0.126429  8.734282  -1.663001  0.265273  8.734282  -1.663001  0.265274  -10.133353  11.532057  6.642198  -161.250593  68.786497  -99.287775  -24.659171  -3.344264  88.70614  90.472713  -2.968984  -8.676165  -2.529213  -11.414944  20.30188  71.393884  36.295072  25.224426  -19.118029  6.530027  -116.341308  68.378103  -9.53699  1.799767  -14.548012  5.576209  5.53011  -10.953989  4.053717  4.280314  
0.0  93.25843  0.0  -2.344134  -45.402921  -94.588511  35.620787  -28.39697  -36.602024  4.222356  5.536149  35.074311  7.943557  2.873343  6.374234  -0.278912  22.842845  2.151813  -2.065779  1.996742  23.874061  -1.310149  2.999512  -5.941132  3.243986  -0.71043  0.027858  8.868644  -1.941606  -0.019209  8.868645  -1.941606  -0.019209  -10.132504  12.319643  7.345304  -163.485621  68.851641  -101.795145  -23.068121  -5.367441  88.687206  90.228985  -1.270643  -8.478781  -2.526886  -11.235351  20.709396  70.91864  37.017219  25.305116  -22.726789  9.99445  -115.977155  67.003533  -8.658283  3.883766  -15.193278  5.981644  5.78419  -11.44253  4.346191  4.486696  
0.0  93.25843  0.0  -2.474123  -44.331836  -94.541936  35.222397  -27.89151  -36.788605  3.570867  5.697202  35.272466  8.030554  2.896602  6.317011  0.048683  22.936314  3.291961  -2.742688  1.786946  22.91463  -1.727615  2.94531  -5.837247  3.23857  -0.774097  -0.026313  8.855918  -2.108035  -0.175388  8.855919  -2.108035  -0.175388  -10.055988  12.824291  7.794694  -165.004449  68.976797  -103.578343  -21.543272  -6.672439  88.543347  90.089227  0.38662  -7.941711  -2.170219  -11.254354  20.897433  70.202675  38.236159  25.143756  -25.708232  12.332674  -115.363479  66.556344  -7.291316  4.944215  -15.719123  6.239439  5.927304  -11.839634  4.53131  4.605769  
